<svg height="512pt" viewBox="0 0 512 512" width="512pt" xmlns="http://www.w3.org/2000/svg"><path d="m512 256c0 141.386719-114.613281 256-256 256s-256-114.613281-256-256 114.613281-256 256-256 256 114.613281 256 256zm0 0" fill="#f40000"/><path d="m262.390625 511.917969c124.476563-3.050781 226.894531-94.949219 246.289063-214.683594l-161.160157-161.160156-217.109375 224.066406 64.894532 64.894531-12.65625 7.140625zm0 0" fill="#9b000a"/><path d="m381.589844 222.113281c0-69.359375-56.230469-125.589843-125.589844-125.589843s-125.589844 56.230468-125.589844 125.589843v138.027344l52.238282.328125v71.707031h160.597656v-119.734375c23.640625-22.835937 38.34375-54.863281 38.34375-90.328125zm0 0" fill="#fed2a4"/><path d="m343.246094 432.175781v-119.734375c23.640625-22.835937 38.34375-54.863281 38.34375-90.328125 0-69.359375-56.226563-125.589843-125.589844-125.589843v335.652343zm0 0" fill="#ffbd86"/><path d="m325.300781 207.449219c-1.832031-9.273438-5.476562-17.898438-10.554687-25.480469l9.308594-9.3125-19.484376-19.484375-9.308593 9.3125c-7.585938-5.082031-16.207031-8.722656-25.484375-10.558594v-13.164062h-27.554688v13.164062c-9.273437 1.835938-17.898437 5.476563-25.480468 10.558594l-9.3125-9.3125-19.484376 19.484375 9.3125 9.3125c-5.078124 7.582031-8.722656 16.207031-10.558593 25.480469h-13.164063v27.554687h13.164063c1.835937 9.277344 5.480469 17.898438 10.558593 25.480469l-9.3125 9.3125 19.484376 19.484375 9.3125-9.308594c7.582031 5.078125 16.207031 8.722656 25.480468 10.554688v13.164062h27.554688v-13.164062c9.277344-1.832032 17.898437-5.476563 25.484375-10.554688l9.308593 9.308594 19.484376-19.484375-9.308594-9.3125c5.078125-7.582031 8.722656-16.203125 10.554687-25.480469h13.167969v-27.554687zm-69.300781 41.621093c-15.375 0-27.839844-12.464843-27.839844-27.84375 0-15.375 12.464844-27.839843 27.839844-27.839843s27.839844 12.464843 27.839844 27.839843c0 15.378907-12.464844 27.84375-27.839844 27.84375zm0 0" fill="#0095ff"/><path d="m295.257812 279.972656 9.3125 9.308594 19.484376-19.484375-9.3125-9.308594c5.082031-7.585937 8.726562-16.207031 10.558593-25.480469h13.164063v-27.558593h-13.164063c-1.832031-9.273438-5.476562-17.894531-10.558593-25.480469l9.3125-9.3125-19.484376-19.484375-9.3125 9.3125c-7.582031-5.078125-16.207031-8.722656-25.480468-10.558594v-13.164062h-13.777344v54.625c15.375 0 27.839844 12.464843 27.839844 27.839843 0 15.378907-12.464844 27.84375-27.839844 27.84375v54.625h13.777344v-13.167968c9.273437-1.832032 17.898437-5.476563 25.480468-10.554688zm0 0" fill="#0050c3"/></svg>