<svg height="512pt" viewBox="0 0 512 512" width="512pt" xmlns="http://www.w3.org/2000/svg"><path d="m512 256c0 141.386719-114.613281 256-256 256s-256-114.613281-256-256 114.613281-256 256-256 256 114.613281 256 256zm0 0" fill="#00ffe7"/><path d="m509.785156 289.742188-166.394531-166.390626-103.390625 5.648438-62.125 92.914062 89.605469 89.605469-135.480469 121.574219 74.015625 74.011719c16.167969 3.203125 32.878906 4.894531 49.984375 4.894531 129.945312 0 237.265625-96.820312 253.785156-222.257812zm0 0" fill="#00aba2"/><path d="m132 362.960938s6.757812-59.144532 59.703125-59.144532h86.742187s28.164063.566406 28.164063 23.09375c0 22.53125-24.839844 28.726563-24.839844 28.726563h-39.371093s-12.390626.5625-12.390626 11.828125 12.953126 11.265625 12.953126 11.265625h29.566406s46.398437 1.425781 57.453125-28.886719c12.539062-34.386719 24.78125-78.695312 24.78125-78.695312s8.847656-23.832032 32.105469-18.324219c0 0 22.039062 9.488281 17.140624 31.21875l-27.542968 88.449219s-17.097656 60.601562-84.808594 60.601562c-51.722656 0-159.65625 0-159.65625 0zm0 0" fill="#fed2a4"/><path d="m354 196.304688v-47.34375h-16.9375c-1.46875-4.746094-3.378906-9.296876-5.660156-13.617188l11.988281-11.992188-33.476563-33.476562-11.988281 11.988281c-4.324219-2.28125-8.875-4.191406-13.621093-5.660156v-16.9375h-47.34375v16.9375c-4.746094 1.46875-9.296876 3.378906-13.617188 5.660156l-11.992188-11.988281-33.476562 33.476562 11.988281 11.992188c-2.28125 4.320312-4.191406 8.871094-5.660156 13.617188h-16.9375v47.34375h16.9375c1.46875 4.746093 3.378906 9.296874 5.660156 13.621093l-11.988281 11.988281 33.476562 33.476563 11.992188-11.988281c4.320312 2.28125 8.871094 4.195312 13.617188 5.660156v16.9375h47.34375v-16.9375c4.746093-1.46875 9.296874-3.378906 13.621093-5.660156l11.988281 11.988281 33.476563-33.476563-11.988281-11.988281c2.28125-4.324219 4.191406-8.875 5.660156-13.621093zm-93.367188 7.851562c-17.40625 0-31.519531-14.113281-31.519531-31.523438 0-17.40625 14.113281-31.519531 31.519531-31.519531 17.410157 0 31.523438 14.113281 31.523438 31.519531 0 17.410157-14.113281 31.523438-31.523438 31.523438zm0 0" fill="#e56705"/><path d="m331.402344 135.34375 11.988281-11.992188-33.476563-33.476562-11.988281 11.988281c-4.324219-2.28125-8.875-4.191406-13.621093-5.660156v-16.9375h-23.671876v61.847656c17.410157 0 31.519532 14.113281 31.519532 31.519531 0 17.410157-14.113282 31.519532-31.519532 31.519532v61.847656h23.671876v-16.9375c4.746093-1.46875 9.296874-3.378906 13.621093-5.660156l11.988281 11.988281 33.476563-33.476563-11.988281-11.988281c2.28125-4.324219 4.191406-8.875 5.660156-13.621093h16.9375v-47.34375h-16.9375c-1.46875-4.746094-3.378906-9.296876-5.660156-13.617188zm0 0" fill="#a24603"/><g fill="#ffbd86"><path d="m386.867188 252.828125c-23.257813-5.511719-32.105469 18.320313-32.105469 18.320313s-12.242188 44.308593-24.78125 78.699218c-11.054688 30.3125-57.453125 28.882813-57.453125 28.882813h-16.527344v54.269531h39.933594c64.148437-2.488281 80.53125-60.507812 80.53125-60.507812l27.542968-88.449219c4.898438-21.730469-17.140624-31.214844-17.140624-31.214844zm0 0"/><path d="m306.609375 326.910156c0-22.527344-28.164063-23.089844-28.164063-23.089844s-8.0625 0-22.445312 0v51.816407h25.769531s24.839844-6.195313 24.839844-28.726563zm0 0"/></g></svg>