<svg xmlns="http://www.w3.org/2000/svg" viewBox="0 0 68.24 78.44"><defs><style>.cls-1{fill:#fe013a;fill-rule:evenodd;}</style></defs><title>logo-icon-pinkwhite</title><g id="Layer_2" data-name="Layer 2"><g id="Layer_2-2" data-name="Layer 2"><path class="cls-1" d="M26.27,4.27l0,60.51c-.83-.07-3.7-2.12-5.18-2.82L21,7.46c-2.68,1.26-12.07,7-15.72,9-1.7.93-3.61,2.25-5.29,3V59c2.61,1.24,5.28,3.19,7.9,4.45L7.92,24l5.2-2.9,0,45.37c5.49,3,11.4,6.68,17,9.85,4.89,2.76,2.18,3.29,10.41-1.47,4.61-2.66,9.28-5.25,13.82-8L68.23,59V19.51l-20.93-12c-3.56-2-7-4-10.46-6-3.16-1.82-2-2-5.24-.16a46.39,46.39,0,0,1-5.34,3Zm7.92,72.22,0-74.5c1.25.67,2.58,1.44,3.88,2.17A30.9,30.9,0,0,1,42,6.51L42,65l5.26-2.92V9.55a53,53,0,0,1,6.1,3.53l0,45.32,5.23-3V16.17c.73.09,6.55,3.67,7.84,4.36l0,37.4C61,61,55.61,64.13,50.24,67.3l-12.14,7A33,33,0,0,1,34.19,76.49Z"/></g></g></svg>