<svg xmlns="http://www.w3.org/2000/svg" viewBox="0 0 235.7 64.32"><defs><style>.cls-1{fill:#fe013a;fill-rule:evenodd;}</style></defs><title>logo-text-pinkwhite</title><g id="PLayer_32" data-name="Layer 2"><g id="Layer_2-2" data-name="Layer 3"><path class="cls-1" d="M16.36,23.52a15.92,15.92,0,0,1,6.38,1.29,16.33,16.33,0,0,1,8.69,8.68,16.13,16.13,0,0,1,1.28,6.39v22.7a1.58,1.58,0,0,1-1.65,1.65,1.47,1.47,0,0,1-1.1-.46,1.58,1.58,0,0,1-.46-1.19V39.88a13.06,13.06,0,0,0-8-12,13.13,13.13,0,0,0-5.14-1,14.23,14.23,0,0,0-3.86.55,1.66,1.66,0,0,1-1.24-.09,1.4,1.4,0,0,1-.78-1A1.58,1.58,0,0,1,10.61,25a1.54,1.54,0,0,1,1-.78,16.81,16.81,0,0,1,4.78-.74Zm-14.71.1a1.62,1.62,0,0,1,1.2.46,1.62,1.62,0,0,1,.46,1.19v37.4a1.62,1.62,0,0,1-.46,1.19,1.62,1.62,0,0,1-1.2.46A1.58,1.58,0,0,1,0,62.67V25.27a1.58,1.58,0,0,1,1.65-1.65ZM64.32,61a1.65,1.65,0,1,1,0,3.3,19.92,19.92,0,0,1-7.95-1.6A20.5,20.5,0,0,1,45.53,51.87a19.86,19.86,0,0,1-1.61-7.95A20.78,20.78,0,0,1,46,35a1.82,1.82,0,0,1,1-.87,1.45,1.45,0,0,1,1.19,0,1.89,1.89,0,0,1,.87,1,1.58,1.58,0,0,1,0,1.24,16.54,16.54,0,0,0-1.75,7.53,16.79,16.79,0,0,0,1.33,6.67A17.4,17.4,0,0,0,52.24,56a17.2,17.2,0,0,0,5.42,3.67A16.54,16.54,0,0,0,64.32,61ZM79.39,30.23a1.55,1.55,0,0,1,.46,1.15,1.43,1.43,0,0,1-.55,1.15,1.47,1.47,0,0,1-1.1.46,1.67,1.67,0,0,1-1.2-.55,16.42,16.42,0,0,0-5.74-4.14,17.34,17.34,0,0,0-13.55-.18,12.11,12.11,0,0,0-2.94,1.65,1.51,1.51,0,0,1-1.2.23,1.92,1.92,0,0,1-1.1-.69,1.23,1.23,0,0,1-.28-1.19,2.21,2.21,0,0,1,.74-1.1c.55-.37,1.1-.71,1.65-1s1.17-.62,1.84-.92a20.73,20.73,0,0,1,7.9-1.57,20,20,0,0,1,8.23,1.75,20.57,20.57,0,0,1,6.84,5Zm13,24.08a1.62,1.62,0,0,1-1.19-.46,1.5,1.5,0,0,1-.46-1.1V25.18a1.58,1.58,0,0,1,1.65-1.66,1.51,1.51,0,0,1,1.1.46,1.62,1.62,0,0,1,.46,1.2V52.75a1.57,1.57,0,0,1-1.56,1.56Zm39.42-30.79a1.64,1.64,0,0,0-1.19.46,1.62,1.62,0,0,0-.46,1.2V59.36L113.12,46.13a1,1,0,0,0-.74-.28h-.55a1.24,1.24,0,0,0-.73.28L91.43,61.38a1.73,1.73,0,0,0-.64,1.11,1.47,1.47,0,0,0,.37,1.19,1.34,1.34,0,0,0,1.28.64,1.58,1.58,0,0,0,1-.36l18.66-14.52L130.76,64a2.54,2.54,0,0,0,.51.27,1.35,1.35,0,0,0,.5.09h.09a1.45,1.45,0,0,0,1.15-.46,1.68,1.68,0,0,0,.42-1.19V25.18A1.72,1.72,0,0,0,133,24a1.48,1.48,0,0,0-1.15-.46Zm32.44,0a20.07,20.07,0,0,1,7.17,1.29,20.31,20.31,0,0,1,10.57,9,19.14,19.14,0,0,1,2.38,6.85,1.33,1.33,0,0,1-.22,1.24,2.19,2.19,0,0,1-1.15.69h-27.2a1.58,1.58,0,0,1-1.66-1.66,1.58,1.58,0,0,1,1.66-1.65h24.9a15.9,15.9,0,0,0-2.3-5,17.48,17.48,0,0,0-3.72-3.91,17.34,17.34,0,0,0-18.65-1.42,16.68,16.68,0,0,0-6.21,5.83,15.67,15.67,0,0,0-2.48,6.44c-.06.49-.1.95-.14,1.38s0,.88,0,1.37a16.62,16.62,0,0,0,1.33,6.67A17.4,17.4,0,0,0,152.22,56a17.2,17.2,0,0,0,5.42,3.67A16.54,16.54,0,0,0,164.3,61,17.11,17.11,0,0,0,172,59.27a16.23,16.23,0,0,0,5.93-5,16.52,16.52,0,0,0,2-3.31,1.43,1.43,0,0,1,2.12-.83,1.55,1.55,0,0,1,.87.92,1.7,1.7,0,0,1,0,1.29,19.87,19.87,0,0,1-2.29,3.86,20.4,20.4,0,0,1-7.17,6,20.05,20.05,0,0,1-9.1,2.11,19.85,19.85,0,0,1-8-1.6,20.41,20.41,0,0,1-10.84-10.85,19.86,19.86,0,0,1-1.61-7.95,19.35,19.35,0,0,1,.28-3.3,22.54,22.54,0,0,1,1-4A16.12,16.12,0,0,1,147.12,33a20.17,20.17,0,0,1,17.18-9.47Zm51.09.19a19.35,19.35,0,0,1,7.9,1.61,20.65,20.65,0,0,1,6.44,4.36,20.89,20.89,0,0,1,4.36,6.43,20.21,20.21,0,0,1,0,15.81,20.65,20.65,0,0,1-10.8,10.8,19.51,19.51,0,0,1-7.9,1.6,19.9,19.9,0,0,1-10.47-2.94,1.72,1.72,0,0,1-.74-1,1.59,1.59,0,0,1,.19-1.28,1.72,1.72,0,0,1,1-.74,1.4,1.4,0,0,1,1.19.18A16.21,16.21,0,0,0,215.39,61a16.54,16.54,0,0,0,6.66-1.34,17.47,17.47,0,0,0,5.43-3.63,17.11,17.11,0,0,0,3.67-18.7,17.28,17.28,0,0,0-9.1-9.09,17,17,0,0,0-18.7,3.67,17.78,17.78,0,0,0-3.63,5.42A16.79,16.79,0,0,0,198.39,44V62.76a1.44,1.44,0,0,1-.5,1.1,1.76,1.76,0,0,1-1.24.46,1.57,1.57,0,0,1-1.57-1.56V1.56a1.53,1.53,0,0,1,.46-1.1A1.51,1.51,0,0,1,196.65,0a1.76,1.76,0,0,1,1.24.46,1.46,1.46,0,0,1,.5,1.1V33a19.85,19.85,0,0,1,17-9.28Z"/></g></g></svg>